# 3ds Max Wavefront OBJ Exporter v0.99 - (c)2007 guruware
# File Created: 25.05.2022 21:17:07

mtllib D10.mtl

#
# object D10
#

v  6.5672 1.7862 9.7623
v  1.9439 7.8941 8.6906
v  -5.5804 7.9309 6.8979
v  -5.6509 -8.0000 6.8031
v  -10.8405 1.9482 -4.5066
v  -8.8147 7.9942 -0.1281
v  -1.9439 -7.8941 -8.6906
v  -6.5672 -1.7862 -9.7623
v  8.8147 -7.9942 0.1281
v  5.5804 -7.9309 -6.8979
v  10.8405 -1.9482 4.5066
v  5.6509 8.0000 -6.8031
# 12 vertices

vn -0.2318 -0.0048 0.9728
vn -0.9084 0.0015 0.4182
vn -0.7670 -0.6135 -0.1877
vn -0.0031 -1.0000 -0.0076
vn 0.3277 -0.6237 0.7096
vn -0.3277 0.6237 -0.7096
vn 0.2318 0.0048 -0.9728
vn 0.9084 -0.0015 -0.4182
vn 0.7670 0.6135 0.1877
vn 0.0031 1.0000 0.0076
# 10 vertex normals

o D10
g D10
usemtl wire_177027088
s off
f 1//1 2//1 3//1 4//1 
f 5//2 4//2 3//2 6//2 
f 7//3 4//3 5//3 8//3 
f 9//4 4//4 7//4 10//4 
f 1//5 4//5 9//5 11//5 
f 8//6 5//6 6//6 12//6 
f 10//7 7//7 8//7 12//7 
f 11//8 9//8 10//8 12//8 
f 2//9 1//9 11//9 12//9 
f 6//10 3//10 2//10 12//10 
# 10 polygons

