# 3ds Max Wavefront OBJ Exporter v0.99 - (c)2007 guruware
# File Created: 25.05.2022 21:18:32

mtllib D20.mtl

#
# object Icosaedron
#

v  -7.8779 2.2739 -4.3482
v  -7.8779 -1.1269 4.7736
v  -4.8694 7.9532 2.9647
v  0.0184 -6.8063 5.8787
v  -4.8694 -6.8063 -2.5394
v  4.8663 7.9532 2.9647
v  -0.0015 2.3831 9.2932
v  7.8749 -1.1269 4.7736
v  -0.0015 -6.8063 -2.5394
v  4.8663 -6.8063 -2.5394
v  7.8749 2.2739 -4.3482
v  -0.0015 7.8776 -5.4663
v  -0.0015 -1.2361 -8.8678
# 13 vertices

vn -0.9342 0.3343 0.1247
vn -0.5804 -0.7414 0.3370
vn 0.5773 0.3392 0.7427
vn 0.3578 -0.3246 0.8756
vn 0.0000 -1.0000 -0.0000
vn -0.5773 0.3392 0.7427
vn 0.5824 -0.7404 0.3354
vn 0.9342 -0.3343 -0.1247
vn 0.5768 0.7429 -0.3397
vn -0.3570 -0.3260 0.8754
vn 0.0000 -0.7506 -0.6607
vn 0.3567 0.3267 -0.8753
vn 0.0000 0.7506 0.6607
vn -0.5773 -0.3392 -0.7427
vn 0.0000 1.0000 -0.0090
vn -0.5768 0.7429 -0.3397
vn -0.3567 0.3267 -0.8753
vn -0.9342 -0.3343 -0.1247
vn 0.9342 0.3343 0.1247
vn 0.5773 -0.3392 -0.7427
# 20 vertex normals

o Icosaedron
g Icosaedron
usemtl wire_140088225
s off
f 1//1 2//1 3//1 
f 4//2 2//2 5//2 
f 6//3 7//3 8//3 
f 7//4 4//4 8//4 
f 9//5 4//5 5//5 
f 4//5 9//5 10//5 
f 3//6 2//6 7//6 
f 8//7 4//7 10//7 
f 11//8 8//8 10//8 
f 11//9 12//9 6//9 
f 7//10 2//10 4//10 
f 13//11 9//11 5//11 
f 9//11 13//11 10//11 
f 12//12 11//12 13//12 
f 6//13 3//13 7//13 
f 1//14 13//14 5//14 
f 6//15 12//15 3//15 
f 12//16 1//16 3//16 
f 12//17 13//17 1//17 
f 1//18 5//18 2//18 
f 11//19 6//19 8//19 
f 11//20 10//20 13//20 
# 0 polygons - 22 triangles

