# 3ds Max Wavefront OBJ Exporter v0.99 - (c)2007 guruware
# File Created: 25.05.2022 21:20:10

mtllib D3.mtl

#
# object Pyramid001
#

v  -10.0000 4.3301 0.0000
v  -9.9999 -4.3301 5.0000
v  10.0000 -4.3301 5.0000
v  10.0000 4.3301 -0.0000
v  10.0000 -4.3301 -5.0000
v  -10.0000 -4.3301 -5.0000
v  -15.0000 -1.4434 0.0000
v  15.0000 -1.4434 -0.0000
# 8 vertices

vn 0.0000 0.5000 0.8660
vn -0.0000 0.5000 -0.8660
vn -0.0000 -1.0000 -0.0000
vn -0.7559 0.6547 0.0000
vn -0.7559 -0.3273 -0.5669
vn -1.0000 -0.0000 0.0000
vn -0.7559 -0.3273 0.5670
vn 0.7559 0.6547 -0.0000
vn 0.7559 -0.3273 0.5669
vn 1.0000 -0.0000 -0.0000
vn 0.7559 -0.3273 -0.5669
# 11 vertex normals

vt 0.5000 1.0000 0.0000
vt 1.0000 0.0000 0.0000
vt 0.0000 0.0000 0.0000
vt 0.5000 0.3333 0.0000
# 4 texture coords

o Pyramid001
g Pyramid001
usemtl wire_177088027
s off
f 1/1/1 2/2/1 3/3/1 4/1/1 
f 4/1/2 5/2/2 6/3/2 1/1/2 
f 5/2/3 3/3/3 2/2/3 6/3/3 
f 1/1/4 6/3/5 7/4/6 
f 6/3/5 2/2/7 7/4/6 
f 2/2/7 1/1/4 7/4/6 
f 4/1/8 3/3/9 8/4/10 
f 3/3/9 5/2/11 8/4/10 
f 5/2/11 4/1/8 8/4/10 
# 3 polygons - 6 triangles

