# 3ds Max Wavefront OBJ Exporter v0.99 - (c)2007 guruware
# File Created: 24.05.2022 15:50:50

mtllib D4.mtl

#
# object Tetraedron
#

v  0.0002 7.7947 -2.7557
v  9.5465 -7.7947 -8.2675
v  -9.5465 -7.7947 -8.2675
v  0.0000 -7.7947 8.2675
# 4 vertices

vn 0.0000 0.3333 -0.9428
vn 0.8165 0.3333 0.4714
vn -0.8165 0.3333 0.4714
vn 0.0000 -1.0000 -0.0000
# 4 vertex normals

o Tetraedron
g Tetraedron
usemtl wire_145028177
s off
f 1//1 2//1 3//1 
f 2//2 1//2 4//2 
f 3//3 4//3 1//3 
f 2//4 4//4 3//4 
# 0 polygons - 4 triangles

