# 3ds Max Wavefront OBJ Exporter v0.99 - (c)2007 guruware
# File Created: 25.05.2022 21:18:54

mtllib D8.mtl

#
# object Octaedron
#

v  -9.7070 -7.9258 5.6043
v  -4.8535 -7.9257 -2.8022
v  0.0000 -7.9258 5.6043
v  3.2357 -7.9257 -5.6043
v  6.4713 -7.9257 -0.0000
v  9.7070 -7.9258 5.6043
v  -0.0000 -7.9257 -11.2087
v  -4.8535 7.9257 2.8022
v  0.0000 7.9258 -5.6043
v  -9.7070 7.9258 -5.6043
v  4.8535 7.9257 2.8022
v  9.7070 7.9258 -5.6043
v  0.0000 7.9257 11.2087
v  -9.7070 0.0000 -0.0000
v  -4.8535 -0.0000 8.4065
v  -4.8535 0.0000 -8.4065
v  6.4713 2.6419 -7.4725
v  3.2357 -2.6419 -9.3406
v  7.2803 -3.9629 -1.4011
v  9.7070 -2.6419 1.8681
v  9.7070 2.6419 -1.8681
v  4.8535 -0.0000 8.4065
# 22 vertices

vn -0.0000 -1.0000 -0.0000
vn 0.0000 -1.0000 -0.0000
vn 0.0000 1.0000 0.0000
vn -0.8165 0.3333 0.4714
vn -0.8165 -0.3333 -0.4714
vn 0.0000 0.3333 -0.9428
vn -0.0000 0.3333 -0.9428
vn 0.8165 -0.3333 -0.4714
vn 0.8165 0.3333 0.4714
vn 0.0000 -0.3333 0.9428
# 10 vertex normals

o Octaedron
g Octaedron
usemtl wire_166229229
s off
f 1//1 2//1 3//1 
f 2//2 4//2 3//2 
f 3//2 5//2 6//2 
f 2//2 7//2 4//2 
f 3//2 4//2 5//2 
f 8//3 9//3 10//3 
f 11//3 12//3 9//3 
f 11//3 8//3 13//3 
f 9//3 8//3 11//3 
f 10//4 14//4 8//4 
f 8//4 14//4 15//4 
f 15//4 14//4 1//4 
f 13//4 8//4 15//4 
f 10//5 16//5 14//5 
f 14//5 16//5 2//5 
f 2//5 16//5 7//5 
f 1//5 14//5 2//5 
f 12//6 17//6 9//6 
f 17//7 16//7 9//7 
f 17//6 18//6 16//6 
f 16//6 18//6 7//6 
f 10//6 9//6 16//6 
f 19//8 20//8 6//8 
f 19//8 6//8 5//8 
f 4//8 19//8 5//8 
f 19//8 21//8 20//8 
f 17//8 12//8 21//8 
f 17//8 19//8 18//8 
f 7//8 18//8 4//8 
f 18//8 19//8 4//8 
f 21//8 19//8 17//8 
f 21//9 11//9 13//9 
f 21//9 13//9 20//9 
f 6//9 20//9 22//9 
f 20//9 13//9 22//9 
f 12//9 11//9 21//9 
f 1//10 3//10 15//10 
f 15//10 3//10 22//10 
f 22//10 3//10 6//10 
f 13//10 15//10 22//10 
# 0 polygons - 40 triangles

